<svg xmlns="http://www.w3.org/2000/svg" width="27" height="26" viewBox="0 0 27 26">
  <defs>
    <style>
      .cls-1 {
        fill: #fff;
        fill-rule: evenodd;
      }
    </style>
  </defs>
  <path id="Linkedin" class="cls-1" d="M13.953,0A13,13,0,1,1,.906,13,13.023,13.023,0,0,1,13.953,0ZM10.646,19.327V11.288H7.767v8.039h2.878ZM9.207,10.191A1.458,1.458,0,0,0,10.835,8.8,1.451,1.451,0,0,0,9.226,7.414,1.458,1.458,0,0,0,7.6,8.8a1.445,1.445,0,0,0,1.591,1.389H9.207Zm3.032,9.136h2.879V14.838a1.706,1.706,0,0,1,.095-0.651,1.566,1.566,0,0,1,1.476-.978c1.042,0,1.459.737,1.459,1.819v4.3h2.878V14.718c0-2.471-1.421-3.619-3.314-3.619A2.9,2.9,0,0,0,15.1,12.454h0.019V11.288H12.239c0.038,0.755,0,8.039,0,8.039h0Z"/>
</svg>
