<svg xmlns="http://www.w3.org/2000/svg" width="27" height="26" viewBox="0 0 27 26">
  <defs>
    <style>
      .cls-1 {
        fill: #fff;
        fill-rule: evenodd;
      }
    </style>
  </defs>
  <path id="Twitter" class="cls-1" d="M13.375,0A13,13,0,1,1,.312,13,13.031,13.031,0,0,1,13.375,0Zm7.834,8.837a6.785,6.785,0,0,1-1.846.472,3.062,3.062,0,0,0,1.413-1.66,6.75,6.75,0,0,1-2.042.728,3.316,3.316,0,0,0-2.346-.947,3.113,3.113,0,0,0-3.214,3,2.8,2.8,0,0,0,.083.684A9.354,9.354,0,0,1,6.633,7.978,2.838,2.838,0,0,0,6.2,9.487a2.953,2.953,0,0,0,1.43,2.5,3.387,3.387,0,0,1-1.456-.375v0.038A3.062,3.062,0,0,0,8.75,14.589a3.418,3.418,0,0,1-.847.1A3.5,3.5,0,0,1,7.3,14.641a3.2,3.2,0,0,0,3,2.083,6.751,6.751,0,0,1-3.992,1.284,7.051,7.051,0,0,1-.767-0.041,9.583,9.583,0,0,0,4.927,1.348,8.776,8.776,0,0,0,9.145-8.538c0-.13,0-0.259-0.009-0.389A6.32,6.32,0,0,0,21.209,8.837Z"/>
</svg>
